<?xml version="1.0" encoding="iso-8859-1"?>
<!-- Generator: Adobe Illustrator 19.0.0, SVG Export Plug-In . SVG Version: 6.00 Build 0)  -->
<svg version="1.1" id="Capa_1" xmlns="http://www.w3.org/2000/svg" xmlns:xlink="http://www.w3.org/1999/xlink" width="100px" height="100px"
	 viewBox="0 0 470.052 470.052" style="enable-background:new 0 0 470.052 470.052;" xml:space="preserve">
<g>
	<path d="M207.866,78.777c-20.839-32.587-56.401-52.042-95.128-52.042c-21.499,0-42.479,6.149-60.671,17.783
		C26.684,60.75,9.142,85.896,2.671,115.322c-6.471,29.427-1.095,59.612,15.138,84.995l122.115,190.958
		c20.839,32.586,56.4,52.041,95.128,52.042c0.001,0,0.001,0,0.002,0c21.497,0,42.478-6.149,60.669-17.783
		c25.383-16.232,42.925-41.377,49.396-70.804c6.471-29.427,1.095-59.612-15.138-84.995L207.866,78.777z M17.321,118.544
		c5.61-25.514,20.82-47.315,42.828-61.389c15.773-10.087,33.959-15.419,52.589-15.419c33.585,0,64.423,16.868,82.491,45.123
		l57.017,89.16L87.463,281.396l-57.017-89.16C16.372,170.228,11.711,144.057,17.321,118.544z M330.469,351.508
		c-5.61,25.514-20.82,47.315-42.828,61.389c-15.774,10.088-33.959,15.42-52.589,15.419c-33.585-0.001-64.423-16.869-82.491-45.123
		l-57.017-89.16l164.783-105.378l57.017,89.16C331.417,299.824,336.078,325.995,330.469,351.508z"/>
	<path d="M87.98,254.362c1.432,2.238,3.853,3.46,6.325,3.46c1.383,0,2.782-0.382,4.034-1.183c3.489-2.231,4.509-6.869,2.277-10.359
		L55.72,176.073c-9.757-15.257-12.988-33.399-9.099-51.086c3.889-17.688,14.433-32.801,29.689-42.558
		c3.489-2.231,4.509-6.87,2.277-10.359c-2.232-3.49-6.869-4.51-10.359-2.278c-18.632,11.915-31.508,30.373-36.258,51.973
		c-4.749,21.6-0.803,43.757,11.112,62.389L87.98,254.362z"/>
	<path d="M235.055,398.316c-23.302,0-44.692-11.696-57.22-31.285l-44.897-70.208c-2.232-3.49-6.869-4.509-10.359-2.278
		c-3.489,2.231-4.509,6.869-2.277,10.359l44.897,70.208c15.297,23.922,41.412,38.204,69.856,38.204c4.142,0,7.5-3.358,7.5-7.5
		S239.198,398.316,235.055,398.316z"/>
	<path d="M294.347,283.62c-3.489,2.231-4.509,6.87-2.277,10.359c9.757,15.257,12.988,33.399,9.099,51.086
		c-0.89,4.046,1.669,8.046,5.715,8.936c0.542,0.119,1.084,0.176,1.617,0.176c3.445,0,6.548-2.388,7.318-5.891
		c4.749-21.601,0.803-43.757-11.112-62.389C302.475,282.407,297.837,281.388,294.347,283.62z"/>
	<path d="M467.38,115.322c-6.471-29.426-24.013-54.572-49.396-70.804c-52.399-33.507-122.289-18.141-155.799,34.259l-15.674,24.51
		c-2.231,3.489-1.212,8.127,2.277,10.359c3.49,2.231,8.129,1.212,10.359-2.278l15.674-24.51
		c29.053-45.43,89.65-58.755,135.08-29.703c22.008,14.074,37.218,35.875,42.828,61.389c5.609,25.513,0.948,51.684-13.125,73.692
		l-57.017,89.16l-20.297-12.98c-3.491-2.231-8.129-1.212-10.359,2.278c-2.231,3.489-1.212,8.127,2.277,10.359l20.298,12.98
		l-11.312,17.688c-2.231,3.489-1.212,8.127,2.277,10.359c1.252,0.8,2.651,1.183,4.034,1.183c2.473,0,4.895-1.222,6.325-3.46
		l76.41-119.486C468.475,174.934,473.851,144.749,467.38,115.322z"/>
	<path d="M293.771,106.481c2.473,0,4.894-1.222,6.325-3.46c12.515-19.568,33.912-31.251,57.238-31.251
		c12.912,0,25.501,3.686,36.407,10.66c3.488,2.231,8.128,1.212,10.358-2.278c2.231-3.49,1.212-8.127-2.278-10.359
		c-13.322-8.52-28.706-13.023-44.487-13.023c-28.469,0-54.59,14.269-69.875,38.17c-2.231,3.489-1.212,8.127,2.277,10.359
		C290.989,106.099,292.388,106.481,293.771,106.481z"/>
</g>
<g>
</g>
<g>
</g>
<g>
</g>
<g>
</g>
<g>
</g>
<g>
</g>
<g>
</g>
<g>
</g>
<g>
</g>
<g>
</g>
<g>
</g>
<g>
</g>
<g>
</g>
<g>
</g>
<g>
</g>
</svg>
